<svg xmlns="http://www.w3.org/2000/svg" xmlns:xlink="http://www.w3.org/1999/xlink" fill="none" version="1.1" width="18" height="18" viewBox="0 0 18 18"><g><g><g><rect x="1.5" y="3" width="15" height="12" rx="3" fill-opacity="0" stroke-opacity="1" stroke="#1F2336" fill="none" stroke-width="1.5"/></g><g><path d="M4.95,6.15L7.2,7.8375L8.25826,8.63119Q8.59159,8.88119,9,8.88119Q9.40841,8.88119,9.74174,8.63119L10.8,7.8375L13.05,6.15Q13.14737,6.076975,13.26283,6.038487Q13.37829,6,13.5,6Q13.57387,6,13.64632,6.014411Q13.71877,6.028822,13.78701,6.05709Q13.85526,6.085359,13.91668,6.126398Q13.9781,6.167437,14.03033,6.21967Q14.08256,6.271903,14.1236,6.333322Q14.16464,6.394742,14.19291,6.462987Q14.22118,6.531233,14.23559,6.603682Q14.25,6.6761315,14.25,6.75Q14.25,6.8373254,14.22994,6.922315Q14.20987,7.0073039999999995,14.17082,7.0854099999999995Q14.13177,7.1635159999999996,14.07581,7.230561Q14.01986,7.297605,13.95,7.35L13.9497,7.350224L11.7,9.0375L10.64174,9.83119Q9.90841,10.38119,9,10.38119Q8.09159,10.38119,7.35826,9.83119L6.3,9.0375L4.05,7.35Q3.98014,7.297605,3.9241859999999997,7.230561Q3.868233,7.1635159999999996,3.82918,7.0854099999999995Q3.790127,7.0073039999999995,3.770063,6.922315Q3.75,6.8373254,3.75,6.75Q3.75,6.6761315,3.764411,6.603682Q3.778822,6.531233,3.80709,6.462987Q3.835359,6.394742,3.876398,6.333322Q3.917437,6.271903,3.96967,6.21967Q4.021903,6.167437,4.083322,6.126398Q4.144742,6.085359,4.212987,6.05709Q4.281233,6.028822,4.353682,6.014411Q4.4261315,6,4.5,6Q4.621708,6,4.737171,6.038487Q4.852633,6.076975,4.95,6.15Z" fill-rule="evenodd" fill="#1F2336" fill-opacity="1"/></g></g></g></svg>