<svg xmlns="http://www.w3.org/2000/svg" xmlns:xlink="http://www.w3.org/1999/xlink" fill="none" version="1.1" width="21" height="21" viewBox="0 0 21 21"><g><g><g><path d="M2.1424849999999998,9.45364Q1.57028,10.499929999999999,2.142469,11.546230000000001Q3.374136,13.79843,5.57381,15.1295Q7.83867,16.5,10.500029999999999,16.5Q13.1614,16.5,15.4262,15.12953Q17.625799999999998,13.7985,18.8575,11.54636Q19.4297,10.500070000000001,18.8575,9.45378Q17.6259,7.20157,15.4262,5.870506Q13.1613,4.5,10.499970000000001,4.5Q7.83865,4.5,5.5738199999999996,5.870466Q3.374169,7.20149,2.1424849999999998,9.45364ZM6.3503799999999995,13.84616Q4.49635,12.724260000000001,3.458527,10.826509999999999Q3.279936,10.499939999999999,3.458532,10.17338Q4.49637,8.27568,6.3503799999999995,7.1538Q8.25715,6,10.499970000000001,6Q12.7428,6,14.6496,7.15384Q16.5036,8.27575,17.5415,10.173490000000001Q17.720100000000002,10.500060000000001,17.5415,10.82662Q16.5036,12.724319999999999,14.6496,13.8462Q12.7429,15,10.500029999999999,15Q8.25717,15,6.3503799999999995,13.84616Z" fill-rule="evenodd" fill="#677A90" fill-opacity="1"/></g><g><ellipse cx="10.5" cy="10.5" rx="2.625" ry="2.625" fill-opacity="0" stroke-opacity="1" stroke="#677A90" fill="none" stroke-width="1.5"/></g></g></g></svg>