<svg xmlns="http://www.w3.org/2000/svg" xmlns:xlink="http://www.w3.org/1999/xlink" fill="none" version="1.1" width="18" height="18" viewBox="0 0 18 18"><g><g><g transform="matrix(-1,0,0,1,24,0)"><ellipse cx="15" cy="5.25" rx="3" ry="3" fill-opacity="0" stroke-opacity="1" stroke="#1F2336" fill="none" stroke-width="1.5"/></g><g><path d="M5.5172,15.88016L5.85644,15.8317Q9,15.38262,12.14356,15.83169L12.4828,15.88016Q13.48294,16.02304,14.2416,15.36481Q15,14.70674,15,13.69655L15,12.69438Q15,11.97565,14.574,11.37944Q14.1565,10.79521,13.49795,10.560013Q11.32329,9.7833481,9.00474,9.7810438Q6.68961,9.7787429,4.533976,10.548613Q3.856746,10.79048,3.433417,11.3733Q3,11.97,3,12.69438L3,13.69655Q3,14.70674,3.75843574,15.36481Q4.517055,16.02303,5.5172,15.88016ZM12.35569,14.34677Q9,13.86739,5.64431,14.34677L5.30507,14.39523Q4.98285,14.44126,4.741477,14.23183Q4.5,14.022310000000001,4.5,13.69655L4.5,12.69438Q4.5,12.15354,5.03848,11.96123Q6.94871,11.279,9.003250000000001,11.28104Q11.06274,11.28309,12.99344,11.97263Q13.20934,12.04973,13.35354,12.25152Q13.5,12.4565,13.5,12.69438L13.5,13.69655Q13.5,14.022310000000001,13.25852,14.23183Q13.01715,14.44126,12.69493,14.39523L12.35569,14.34677Z" fill-rule="evenodd" fill="#1F2336" fill-opacity="1"/></g></g></g></svg>