<svg xmlns="http://www.w3.org/2000/svg" xmlns:xlink="http://www.w3.org/1999/xlink" fill="none" version="1.1" width="18" height="18" viewBox="0 0 18 18"><g><g><g><path d="M9.09674,8.90326Q8.5939,8.40043,8.09805,7.79954Q7.95118,7.62157,8.11057,7.46218L8.31786,7.2549Q9.04221,6.53054,9.0256,5.49467Q9.00921,4.47289,8.27852,3.74221L6.78371,2.24739326Q6.05303,1.516713,5.03125,1.500321Q3.99538,1.483703,3.27102,2.2080569L2.3059472,3.173132Q0.86782,4.61126,1.933865,7.51675Q2.891776,10.12753,5.3821200000000005,12.6179Q7.87247,15.1082,10.48325,16.0661Q13.3887,17.132199999999997,14.8269,15.694L15.7919,14.729Q16.5163,14.0046,16.4997,12.9688Q16.4833,11.94697,15.7526,11.21629L14.2578,9.72148Q13.5271,8.99079,12.5053,8.9744Q11.46946,8.95779,10.74511,9.68214L10.53782,9.88943Q10.37843,10.04882,10.20046,9.90195Q9.59958,9.40611,9.09674,8.90326ZM6.5406,7.55009Q6.50685,8.22802,6.94111,8.75426Q7.48257,9.410409999999999,8.03608,9.96392Q8.5896,10.51744,9.24574,11.0589Q9.77198,11.49315,10.44991,11.4594Q11.12266,11.4259,11.59848,10.95009L11.80577,10.7428Q12.08078,10.46779,12.4813,10.47421Q12.8959,10.48086,13.1971,10.78214L14.6919,12.277Q14.9932,12.5782,14.9999,12.9928Q15.0063,13.3933,14.7313,13.6683L13.7662,14.6334Q13.0057,15.3939,10.99993,14.6579Q8.69943,13.8139,6.44278,11.55721Q4.18614,9.30057,3.34207,7.00007Q2.60613,4.99427,3.36661,4.23379L4.33168,3.26872Q4.6067,2.993703,5.00719,3.000128Q5.42177,3.006779,5.723050000000001,3.3080499999999997L7.21786,4.80287Q7.51914,5.10414,7.52579,5.51873Q7.53221,5.91922,7.2572,6.19423L7.04991,6.40152Q6.5741,6.87734,6.5406,7.55009Z" fill-rule="evenodd" fill="#1F2336" fill-opacity="1"/></g></g></g></svg>