<svg xmlns="http://www.w3.org/2000/svg" xmlns:xlink="http://www.w3.org/1999/xlink" fill="none" version="1.1" width="19" height="19" viewBox="0 0 19 19"><g><path d="M12.0688,6.56434Q11.9738,6.56434,11.8834,6.53497Q11.793,6.50561,11.7161,6.44975Q11.6393,6.39389,11.5834,6.31701Q11.5275,6.24013,11.4982,6.14975L10.0706,1.75623Q10.0413,1.66585,9.98541,1.58897Q9.92955,1.51209,9.85267,1.45623Q9.77579,1.40037,9.68541,1.37101Q9.59503,1.34164,9.5,1.34164Q9.40497,1.34164,9.31459,1.37101Q9.22421,1.40037,9.14733,1.45623Q9.07045,1.51209,9.01459,1.58897Q8.95873,1.66585,8.92937,1.75623L7.50182,6.14975Q7.47246,6.24013,7.4166,6.31701Q7.36074,6.39389,7.28386,6.44975Q7.20698,6.50561,7.1166,6.53497Q7.02622,6.56434,6.93119,6.56434L2.31157,6.56434Q2.21654,6.56434,2.12616,6.59371Q2.03578,6.62307,1.9589,6.67893Q1.88202,6.73479,1.82616,6.81167Q1.77031,6.88855,1.74094,6.97893Q1.71157,7.06931,1.71157,7.16434Q1.71157,7.25937,1.74094,7.34975Q1.77031,7.44013,1.82616,7.51701Q1.88202,7.59389,1.9589,7.64975L5.69625,10.3651Q5.77313,10.421,5.82899,10.4978Q5.88485,10.5747,5.91421,10.6651Q5.94358,10.7555,5.94358,10.8505Q5.94358,10.9455,5.91421,11.0359L4.48667,15.4294Q4.45731,15.5198,4.45731,15.6148Q4.45731,15.7099,4.48667,15.8003Q4.51604,15.8906,4.5719,15.9675Q4.62776,16.0444,4.70464,16.1003Q4.78152,16.1561,4.8719,16.1855Q4.96228,16.2148,5.05731,16.2148Q5.15234,16.2148,5.24272,16.1855Q5.3331,16.1561,5.40998,16.1003L9.14733,13.3849Q9.22421,13.329,9.31459,13.2997Q9.40497,13.2703,9.5,13.2703Q9.59503,13.2703,9.68541,13.2997Q9.77579,13.329,9.85267,13.3849L13.59,16.1003Q13.6669,16.1561,13.7573,16.1855Q13.8477,16.2148,13.9427,16.2148Q14.0377,16.2148,14.1281,16.1855Q14.2185,16.1561,14.2954,16.1003Q14.3722,16.0444,14.4281,15.9675Q14.484,15.8906,14.5133,15.8003Q14.5427,15.7099,14.5427,15.6148Q14.5427,15.5198,14.5133,15.4294L13.0858,11.0359Q13.0564,10.9455,13.0564,10.8505Q13.0564,10.7555,13.0858,10.6651Q13.1152,10.5747,13.171,10.4978Q13.2269,10.421,13.3037,10.3651L17.0411,7.64975Q17.118,7.59389,17.1738,7.51701Q17.2297,7.44013,17.2591,7.34975Q17.2884,7.25937,17.2884,7.16434Q17.2884,7.06931,17.2591,6.97893Q17.2297,6.88855,17.1738,6.81167Q17.118,6.73479,17.0411,6.67893Q16.9642,6.62307,16.8738,6.59371Q16.7835,6.56434,16.6884,6.56434L12.0688,6.56434ZM9.5,1.94164L10.9275,6.33516Q11.197,7.16434,12.0688,7.16434L16.6884,7.16434L12.9511,9.87968Q12.2457,10.3921,12.5152,11.2213L13.9427,15.6148L10.2053,12.8995Q9.5,12.387,8.79466,12.8995L5.05731,15.6148L6.48485,11.2213Q6.75426,10.3921,6.04892,9.87968L2.31157,7.16434L6.93119,7.16434Q7.80304,7.16434,8.07246,6.33516L9.5,1.94164Z" fill-rule="evenodd" fill="#1C3959" fill-opacity="1"/></g></svg>